<?xml version="1.0" encoding="UTF-8" standalone="no"?><!DOCTYPE svg PUBLIC "-//W3C//DTD SVG 1.1//EN" "http://www.w3.org/Graphics/SVG/1.1/DTD/svg11.dtd"><svg width="100%" height="100%" viewBox="0 0 512 512" version="1.1" xmlns="http://www.w3.org/2000/svg" xmlns:xlink="http://www.w3.org/1999/xlink" xml:space="preserve" xmlns:serif="http://www.serif.com/" style="fill-rule:evenodd;clip-rule:evenodd;stroke-linejoin:round;stroke-miterlimit:1.41421;"><path d="M298.2,156.6c-52.7,-25.7 -114.5,-10.5 -150.2,32.8l55.2,55.2c6.3,6.3 6.3,16.4 0,22.6c-3.1,3.1 -7.2,4.7 -11.3,4.7c-4.1,0 -8.2,-1.6 -11.3,-4.7l-50.2,-50.2l-128.1,262.7c-2.9,6 -3.1,13.3 0,19.7c5.4,11.1 18.9,15.7 30,10.3l133.6,-65.2l-49.2,-49.2c-6.3,-6.2 -6.3,-16.4 0,-22.6c6.3,-6.2 16.4,-6.2 22.6,0l57,57l102,-49.8c24,-11.7 44.5,-31.3 57.1,-57.1c30.1,-61.7 4.5,-136.1 -57.2,-166.2Zm92.1,-34.9c19.5,-40.7 9.4,-88.8 -30.3,-121.7c-50.3,41.7 -52.5,107.5 -7.9,151.9l8,8c44.4,44.6 110.3,42.4 151.9,-7.9c-32.9,-39.7 -81,-49.8 -121.7,-30.3Z" style="fill:#ffa922;fill-rule:nonzero;"/></svg>