<?xml version="1.0" encoding="UTF-8" standalone="no"?><!DOCTYPE svg PUBLIC "-//W3C//DTD SVG 1.1//EN" "http://www.w3.org/Graphics/SVG/1.1/DTD/svg11.dtd"><svg width="100%" height="100%" viewBox="0 0 384 512" version="1.1" xmlns="http://www.w3.org/2000/svg" xmlns:xlink="http://www.w3.org/1999/xlink" xml:space="preserve" xmlns:serif="http://www.serif.com/" style="fill-rule:evenodd;clip-rule:evenodd;stroke-linejoin:round;stroke-miterlimit:1.41421;"><path d="M186.1,0.09c-105.09,3.15 -186.1,94.83 -186.1,199.96l0,263.92c0,14.26 17.23,21.39 27.31,11.31l24.92,-18.53c6.66,-4.95 16,-3.99 21.51,2.21l42.95,48.35c6.25,6.25 16.38,6.25 22.63,0l40.72,-45.85c6.37,-7.17 17.56,-7.17 23.92,0l40.72,45.85c6.25,6.25 16.38,6.25 22.63,0l42.95,-48.35c5.51,-6.2 14.85,-7.17 21.51,-2.21l24.92,18.53c10.08,10.08 27.31,2.94 27.31,-11.31l0,-271.97c0,-108 -89.17,-195.17 -197.9,-191.91Zm-58.1,223.91c-17.67,0 -32,-14.33 -32,-32c0,-17.67 14.33,-32 32,-32c17.67,0 32,14.33 32,32c0,17.67 -14.33,32 -32,32Zm128,0c-17.67,0 -32,-14.33 -32,-32c0,-17.67 14.33,-32 32,-32c17.67,0 32,14.33 32,32c0,17.67 -14.33,32 -32,32Z" style="fill:#ffc0c0;fill-rule:nonzero;"/></svg>